{
	"patcher" : 	{
		"fileversion" : 1,
		"appversion" : 		{
			"major" : 8,
			"minor" : 2,
			"revision" : 2,
			"architecture" : "x64",
			"modernui" : 1
		}
,
		"classnamespace" : "dsp.gen",
		"rect" : [ 733.0, 78.0, 652.0, 788.0 ],
		"bglocked" : 0,
		"openinpresentation" : 0,
		"default_fontsize" : 12.0,
		"default_fontface" : 0,
		"default_fontname" : "Arial",
		"gridonopen" : 1,
		"gridsize" : [ 15.0, 15.0 ],
		"gridsnaponopen" : 1,
		"objectsnaponopen" : 1,
		"statusbarvisible" : 2,
		"toolbarvisible" : 1,
		"lefttoolbarpinned" : 0,
		"toptoolbarpinned" : 0,
		"righttoolbarpinned" : 0,
		"bottomtoolbarpinned" : 0,
		"toolbars_unpinned_last_save" : 0,
		"tallnewobj" : 0,
		"boxanimatetime" : 200,
		"enablehscroll" : 1,
		"enablevscroll" : 1,
		"devicewidth" : 0.0,
		"description" : "",
		"digest" : "",
		"tags" : "",
		"style" : "",
		"subpatcher_template" : "",
		"assistshowspatchername" : 0,
		"boxes" : [ 			{
				"box" : 				{
					"id" : "obj-6",
					"maxclass" : "newobj",
					"numinlets" : 1,
					"numoutlets" : 0,
					"patching_rect" : [ 589.0, 750.0, 35.0, 22.0 ],
					"text" : "out 4"
				}

			}
, 			{
				"box" : 				{
					"id" : "obj-3",
					"maxclass" : "newobj",
					"numinlets" : 1,
					"numoutlets" : 0,
					"patching_rect" : [ 412.333333333333314, 750.0, 35.0, 22.0 ],
					"text" : "out 3"
				}

			}
, 			{
				"box" : 				{
					"id" : "obj-2",
					"maxclass" : "newobj",
					"numinlets" : 1,
					"numoutlets" : 0,
					"patching_rect" : [ 213.666666666666657, 750.0, 35.0, 22.0 ],
					"text" : "out 2"
				}

			}
, 			{
				"box" : 				{
					"code" : "// buffers with patterns for rhythm and warping\r\nBuffer beatPtrn;\r\nBuffer warpPtrn;\r\nBuffer ratchetPtrn;\r\n\r\n// external parameters\r\nParam div(1);\r\nParam thresh(0.9);\r\nParam barReset(0);\r\nParam offset(0);\r\nParam resetCount(0);\r\n\r\n// ratcheting probability param\r\nParam ratchet(0);\r\n\r\n// history for storage of params\r\nHistory d(1);\r\nHistory o(0);\r\n\r\nHistory bCount(0);\r\nHistory nCount(0);\r\nHistory rCount(0);\r\nHistory wPhasor(0);\r\n\r\n// only adjust the new parameters when one bar \r\n// of 4/4 finished\r\nif (barReset){\r\n\tbarTrig = delta(in1) < -thresh;\r\n\td = latch(div, barTrig);\r\n\to = fract(latch(offset, barTrig));\t\r\n} else {\r\n\td = div;\r\n\to = fract(offset);\r\n}\r\n\r\ncr = 0;\r\n\r\n// reset counter bang after specified amount of time\r\nif (resetCount > 0){\r\n\tcr = rate(in1, resetCount, sync=\"lock\");\r\n\tcr = delta(cr) < -thresh;\r\n}\r\n\r\n// apply offset to the phasor\r\n// of = ((in1 - o) % 1 + 1) % 1;\r\nof = fract(in1 - o);\r\n\r\n// stretch/shrink phasor with rate and locked to main\r\nrt = rate(of, d, sync=\"lock\");\r\n\r\n// create a trigger when delta is below thresh\r\ntrig = delta(rt) < -thresh;\r\n\r\n// warp the phasor based on warping pattern if more than 1 value\r\nif (dim(warpPtrn) > 1){\r\n\t// get warp increment\r\n\twp = peek(warpPtrn, trunc(wPhasor));\r\n\t// add to wphasor\r\n\twPhasor += delta(rt) * wp;\r\n\tif (trig) {\r\n\t\twPhasor = 0;\r\n\t}\r\n\t// get fractional component of wPhasor\r\n\trt = fract(wPhasor);\r\n\t// new triggers\r\n\ttrig = delta(rt) < -thresh;\r\n}\r\n\r\n// increment the beat counter (used to look up patterns)\r\nbCount = counter(trig, cr);\r\n\r\n// get the beat pattern value\r\nbt = 0;\r\nif (trig){\r\n\tbt = peek(beatPtrn, trunc(bCount % dim(beatPtrn)));\r\n\tbt = abs(noise()) < bt;\r\n}\r\n\r\n// increment the note counter (the notes that are actually played)\r\nnCount = counter(trig * bt, cr);\r\n\r\n// ratcheting effect, triggering extra divisions\r\n// in between the standard trigger\r\n// based on probability percentage\r\nif (ratchet > 0){\r\n\tns = latch(abs(noise()), trig);\r\n\t//rch = latch(ratchet, trig);\r\n\trch = latch(peek(ratchetPtrn, trunc(rCount % dim(ratchetPtrn))), trig);\r\n\t\r\n\tif (ns < ratchet){\r\n\t\t// increment the ratchet counter (that are actually played)\r\n\t\trCount = counter(trig * bt, cr);\r\n\t\trch = fract(rt * rch);\r\n\t\t// output the ratchet triggers separately\r\n\t\tout2 = max(0, (delta(rch) < -thresh) - trig);\r\n\t\t// or not?\r\n\t\t//trig += delta(rch) < -thresh;\r\n\t}\r\n}\r\n\r\n// output the beat count\r\nout4 = bCount;\r\n// output the note count\r\nout3 = nCount;\r\n// output the main trigger\r\nout1 = trig * bt;",
					"fontface" : 0,
					"fontname" : "<Monospaced>",
					"fontsize" : 12.0,
					"id" : "obj-5",
					"maxclass" : "codebox",
					"numinlets" : 1,
					"numoutlets" : 4,
					"outlettype" : [ "", "", "", "" ],
					"patching_rect" : [ 15.0, 45.0, 615.0, 690.0 ]
				}

			}
, 			{
				"box" : 				{
					"id" : "obj-1",
					"maxclass" : "newobj",
					"numinlets" : 0,
					"numoutlets" : 1,
					"outlettype" : [ "" ],
					"patching_rect" : [ 15.0, 15.0, 28.0, 22.0 ],
					"text" : "in 1"
				}

			}
, 			{
				"box" : 				{
					"id" : "obj-4",
					"maxclass" : "newobj",
					"numinlets" : 1,
					"numoutlets" : 0,
					"patching_rect" : [ 15.0, 750.0, 35.0, 22.0 ],
					"text" : "out 1"
				}

			}
 ],
		"lines" : [ 			{
				"patchline" : 				{
					"destination" : [ "obj-5", 0 ],
					"source" : [ "obj-1", 0 ]
				}

			}
, 			{
				"patchline" : 				{
					"destination" : [ "obj-2", 0 ],
					"source" : [ "obj-5", 1 ]
				}

			}
, 			{
				"patchline" : 				{
					"destination" : [ "obj-3", 0 ],
					"source" : [ "obj-5", 2 ]
				}

			}
, 			{
				"patchline" : 				{
					"destination" : [ "obj-4", 0 ],
					"source" : [ "obj-5", 0 ]
				}

			}
, 			{
				"patchline" : 				{
					"destination" : [ "obj-6", 0 ],
					"source" : [ "obj-5", 3 ]
				}

			}
 ]
	}

}
